<?xml version="1.0" encoding="UTF-8" standalone="no"?>
<svg
   width="160pt"
   height="160pt"
   version="1.1"
   viewBox="0 0 160 160"
   id="svg1"
   sodipodi:docname="hour-glass.svg"
   inkscape:version="1.4 (e7c3feb100, 2024-10-09)"
   xmlns:inkscape="http://www.inkscape.org/namespaces/inkscape"
   xmlns:sodipodi="http://sodipodi.sourceforge.net/DTD/sodipodi-0.dtd"
   xmlns="http://www.w3.org/2000/svg"
   xmlns:svg="http://www.w3.org/2000/svg">
  <defs
     id="defs1" />
  <sodipodi:namedview
     id="namedview1"
     pagecolor="#ffffff"
     bordercolor="#666666"
     borderopacity="1.0"
     inkscape:showpageshadow="2"
     inkscape:pageopacity="0.0"
     inkscape:pagecheckerboard="0"
     inkscape:deskcolor="#d1d1d1"
     inkscape:document-units="pt"
     showgrid="false"
     inkscape:zoom="1.153125"
     inkscape:cx="800"
     inkscape:cy="800"
     inkscape:window-width="3840"
     inkscape:window-height="2082"
     inkscape:window-x="0"
     inkscape:window-y="41"
     inkscape:window-maximized="1"
     inkscape:current-layer="svg1" />
  <path
     d="m 91.708376,70.156903 c 6.3311,-4.5505 15.642704,-11.2492 17.114904,-31.0601 h 0.8986 c 1.3084,0.01 2.5666,-0.5042 3.498,-1.4234 0.9317,-0.9188 1.4606,-2.17 1.4709,-3.4784 v -1.3253 c -0.01,-1.3088 -0.5392,-2.5596 -1.4709,-3.4788 -0.9314,-0.9188 -2.1896,-1.4306 -3.498,-1.4231 H 44.116954 c -1.31034,-0.01 -2.5709,0.5003 -3.50503,1.4195 -0.93378,0.9195 -1.46395,2.1719 -1.47424,3.4824 v 1.317 c 0.0103,1.3088 0.53917,2.5596 1.47092,3.4788 0.9314,0.9188 2.18958,1.4307 3.49797,1.4231 h 2.20158 c 1.47263,19.8109 10.77772,26.5081 17.11503,31.0601 4.0847,2.9285 6.2045,4.6036 6.2045,7.7386 3e-4,3.1351 -2.1178,4.815795 -6.1859,7.744695 -6.57215,4.72001 -16.33889,11.75211 -17.24604,33.325412 l -2.0793,-4e-4 c -1.3117,-0.01 -2.57354,0.5016 -3.50767,1.4225 -0.93412,0.9211 -1.46361,2.1756 -1.4716,3.4876 v 1.3171 c 0.0103,1.3103 0.54051,2.5629 1.47424,3.4824 0.93413,0.9191 2.1946,1.4297 3.50503,1.4194 h 65.604936 c 1.3084,0.01 2.5666,-0.5042 3.498,-1.4231 0.9317,-0.9191 1.4606,-2.17 1.4709,-3.4787 v -1.3171 c -0.01,-1.3087 -0.5392,-2.5596 -1.4709,-3.4787 -0.9314,-0.9188 -2.1896,-1.4307 -3.498,-1.4231 h -0.7682 C 108.04668,97.383508 98.280076,90.354308 91.707976,85.632198 c -4.0847,-2.9285 -6.2045,-4.603595 -6.2045,-7.738595 -4e-4,-3.1351 2.1278,-4.8078 6.2045,-7.7363 z m -2.692,19.135205 c 6.5174,4.6811 14.537404,10.4552 15.360304,29.665402 l -53.612006,-4e-4 c 0.81708,-19.212702 8.84341,-24.986602 15.36031,-29.667002 4.1602,-2.98811 8.092,-5.81061 8.092,-11.396405 0,-5.5857 -3.9295,-8.4064 -8.092,-11.3964 -6.2538,-4.4932 -13.8881,-9.9871 -15.23011,-27.4025 l 53.350706,7e-4 c -1.3336,17.4171 -8.986304,22.911 -15.230004,27.4025 -4.16019,2.9881 -8.09199,5.8106 -8.09199,11.3964 0,5.585595 3.9295,8.408095 8.09199,11.396405 z m 8.2879,-34.883505 c -6.4177,-2.3735 -13.21159,-3.5682 -20.05429,-3.5269 -6.653002,-0.038 -13.261802,1.087 -19.526722,3.3248 2.49242,4.1123 5.90842,7.5877 9.97692,10.1505 4.3095,3.0962 9.190602,6.6051 9.190602,13.5366 v 0.1513 h 1.352 v -0.1513 c 0,-6.9338 4.8852,-10.4424 9.19059,-13.5366 4.003,-2.5247 7.3787,-5.9272 9.8706,-9.9505 z M 53.721934,115.29741 c -0.0715,0.6658 -0.13496,1.3439 -0.18582,2.0423 h 48.066966 c -0.01,-0.1552 -0.027,-0.3001 -0.037,-0.4514 h 4e-4 c -2.776704,-6.0546 -7.712104,-10.856 -13.840504,-13.4643 -6.12869,-2.6087 -13.010592,-2.8375 -19.299392,-0.6415 -6.2886,2.1956 -11.53171,6.6582 -14.70503,12.5154 z"
     fill="#ff814a"
     fill-rule="evenodd"
     id="path1"
     style="stroke-width:0.0850984" />
</svg>
